<svg width="16" height="20" viewBox="0 0 16 20" fill="none" xmlns="http://www.w3.org/2000/svg">
<path d="M5.05312 0.91878C5.42344 1.46253 5.75625 2.33909 5.75625 3.63284V7.83284H6.87656L8.75625 9.75003H5.75625V15.1875C5.75625 15.6141 5.91563 15.9985 6.23438 16.3453C6.55312 16.6922 7.07344 16.8657 7.79531 16.8657C8.72812 16.8657 9.7125 16.3453 10.7531 15.3047C11.8172 14.2407 12.3797 13.1485 12.4312 12.0282L11.9531 12.0703C10.2469 12.0703 9.39375 11.1657 9.39375 9.35159C9.39375 8.73753 9.59531 8.19378 9.99375 7.71097C10.3922 7.23284 11.0578 6.98909 11.9906 6.98909C12.975 6.98909 13.8047 7.41565 14.4703 8.26878C15.1641 9.1219 15.5109 10.1625 15.5109 11.386C15.5109 13.2 14.7375 14.9297 13.1906 16.5844C11.6719 18.2344 8.76562 19.0641 7.75312 19.0641C6.13125 19.0641 5.50781 18.7453 4.97813 18.3844C4.44844 18.0188 3.75469 17.1563 3.75469 16.0688V9.75003H1.8375L0 7.83284H3.75938V4.03597C3.75938 3.18753 2.91094 2.72347 2.35781 2.67659C2.02031 2.64847 1.65 2.74222 1.51875 2.87815C1.27969 2.47972 1.05 1.9969 0.839063 1.43909C0.839063 1.43909 1.02656 0.764092 1.64062 0.360967C2.0625 0.0844046 2.46094 2.95982e-05 3.07969 2.95982e-05C4.25625 -0.0046579 4.8 0.548467 5.05312 0.91878Z" fill="#F5F6FA"/>
</svg>
